<svg fill="none" xmlns="http://www.w3.org/2000/svg" viewBox="0 0 96 19.05"> <path d="M18.515 18.6619V0H22.071V18.6619H18.515Z" fill="white"></path> <path d="M30.243 19.0534C26.0856 19.0534 23.2356 15.9736 23.2356 11.9802C23.2356 7.98678 26.0856 4.90691 30.243 4.90691C34.4004 4.90691 37.2505 7.98678 37.2505 11.9802C37.2505 15.9736 34.4004 19.0534 30.243 19.0534ZM30.243 16.339C32.4132 16.339 33.6422 14.5902 33.6422 11.9802C33.6422 9.37012 32.4132 7.59527 30.243 7.59527C28.0467 7.59527 26.8439 9.37012 26.8439 11.9802C26.8439 14.5902 28.0467 16.339 30.243 16.339Z" fill="white"></path> <path d="M44.6035 19.0534C40.3677 19.0534 37.7268 15.9736 37.7268 11.9802C37.7268 7.98678 40.3415 4.90691 44.4205 4.90691C47.8981 4.90691 50.0421 6.91666 50.5128 9.81383H47.0352C46.7999 8.6393 45.8847 7.75188 44.5774 7.75188C42.4333 7.75188 41.3351 9.39622 41.3351 11.9802C41.3351 14.5119 42.3549 16.2085 44.5251 16.2085C45.9632 16.2085 46.9829 15.4516 47.2182 13.9377H50.6435C50.4082 16.7827 48.1857 19.0534 44.6035 19.0534Z" fill="white"></path> <path d="M60.5094 18.6619L56.7442 12.5544L55.2015 14.1465V18.6619H51.6716V0H55.2015V10.3358L59.9603 5.27232H64.2223L59.2804 10.3619L64.8236 18.6619H60.5094Z" fill="white"></path> <path d="M73.4849 18.6619C73.2757 18.4009 73.145 17.7745 73.0665 17.1742H73.0142C72.3344 18.1921 71.367 18.9751 69.066 18.9751C66.3205 18.9751 64.3857 17.5396 64.3857 14.8773C64.3857 11.928 66.7912 10.9884 69.772 10.5707C71.9945 10.2575 73.0142 10.0748 73.0142 9.05691C73.0142 8.09119 72.256 7.46477 70.7656 7.46477C69.0921 7.46477 68.2816 8.06509 68.177 9.34402H65.0132C65.1178 6.99496 66.8696 4.93301 70.7917 4.93301C74.8184 4.93301 76.4395 6.73395 76.4395 9.86603V16.6783C76.4395 17.6962 76.5964 18.2965 76.9101 18.5314V18.6619H73.4849ZM69.9289 16.4956C71.9683 16.4956 73.0927 15.2428 73.0927 13.9377V11.928C72.4651 12.2934 71.4977 12.5022 70.6087 12.711C68.7522 13.1286 67.8371 13.5462 67.8371 14.799C67.8371 16.0519 68.6738 16.4956 69.9289 16.4956Z" fill="white"></path> <path d="M78.1773 18.6619V5.27232H81.7333V18.6619H78.1773ZM78.1773 3.18427V0H81.7333V3.18427H78.1773Z" fill="white"></path> <path d="M88.5219 19.0534C85.1489 19.0534 82.848 16.3129 82.848 11.9802C82.848 7.80408 85.2274 4.90691 88.5742 4.90691C90.4568 4.90691 91.6334 5.76823 92.3655 6.89056H92.444V0H96V18.6619H92.5747V16.9132H92.5224C91.738 18.1921 90.4045 19.0534 88.5219 19.0534ZM89.3063 16.078C91.4243 16.078 92.5224 14.5119 92.5224 12.0585C92.5224 9.50062 91.6857 7.77798 89.4109 7.77798C87.4499 7.77798 86.4563 9.50062 86.4563 11.9802C86.4563 14.5641 87.476 16.078 89.3063 16.078Z" fill="white"></path> <path fill-rule="evenodd" clip-rule="evenodd" d="M12.9552 3.04573H0.175949V0.0040822H12.9552C15.3474 0.0040822 17.2867 1.94055 17.2867 4.3293C17.2867 6.71805 15.3474 8.65451 12.9552 8.65451H3.68766C3.33332 8.65451 3.04608 8.94134 3.04608 9.29516C3.04608 9.64898 3.33332 9.93581 3.68766 9.93581H12.9556C15.3476 9.93581 17.2867 11.8721 17.2867 14.2606C17.2867 16.6492 15.3476 18.5855 12.9556 18.5855H0.175949V15.5438H12.9556C13.6653 15.5438 14.2407 14.9693 14.2407 14.2606C14.2407 13.552 13.6653 12.9775 12.9556 12.9775H3.68766C1.65102 12.9775 0 11.3288 0 9.29516C0 7.26148 1.65102 5.61286 3.68766 5.61286H12.9552C13.6651 5.61286 14.2407 5.03819 14.2407 4.3293C14.2407 3.6204 13.6651 3.04573 12.9552 3.04573Z" fill="white"></path> </svg>